<?xml version="1.0" encoding="UTF-8" standalone="no"?><svg xmlns="http://www.w3.org/2000/svg" xmlns:xlink="http://www.w3.org/1999/xlink" contentStyleType="text/css" height="205.8px" preserveAspectRatio="none" style="width:953px;height:205px;background:#FFFFFF;" version="1.1" viewBox="0 0 953 205" width="953.4px" zoomAndPan="magnify"><defs/><g><!--MD5=[1e4237a131bd9781d5e6ca60a36ec378]
cluster com.sct.mobile.application--><g id="cluster_com.sct.mobile.application"><path d="M5.1,78 L117.3,78 A2.25,2.25 0 0 1 118.8,79.5 L123,92.1656 L947.7,92.1656 A1.5,1.5 0 0 1 949.2,93.6656 L949.2,200.1 A1.5,1.5 0 0 1 947.7,201.6 L5.1,201.6 A1.5,1.5 0 0 1 3.6,200.1 L3.6,79.5 A1.5,1.5 0 0 1 5.1,78 " fill="none" style="stroke:#000000;stroke-width:0.8999999999999999;"/><line style="stroke:#000000;stroke-width:0.8999999999999999;" x1="3.6" x2="123" y1="92.1656" y2="92.1656"/><text fill="#000000" font-family="sans-serif" font-size="8.4" font-weight="bold" lengthAdjust="spacing" textLength="111.6" x="6" y="87.9199">com.sct.mobile.application</text></g><!--MD5=[5a11439e6a9c928fb0d5ec822813d7c6]
cluster androidx.appcompat.app--><g id="cluster_androidx.appcompat.app"><path d="M177.9,3.6 L282.3,3.6 A2.25,2.25 0 0 1 283.8,5.1 L288,17.7656 L288.3,17.7656 A1.5,1.5 0 0 1 289.8,19.2656 L289.8,62.1 A1.5,1.5 0 0 1 288.3,63.6 L177.9,63.6 A1.5,1.5 0 0 1 176.4,62.1 L176.4,5.1 A1.5,1.5 0 0 1 177.9,3.6 " fill="none" style="stroke:#000000;stroke-width:0.8999999999999999;"/><line style="stroke:#000000;stroke-width:0.8999999999999999;" x1="176.4" x2="288" y1="17.7656" y2="17.7656"/><text fill="#000000" font-family="sans-serif" font-size="8.4" font-weight="bold" lengthAdjust="spacing" textLength="103.8" x="178.8" y="13.5199">androidx.appcompat.app</text></g><!--MD5=[9766f90424e1828585cf1d2dc254d514]
cluster androidx.fragment.app--><g id="cluster_androidx.fragment.app"><path d="M659.7,3.6 L755.7,3.6 A2.25,2.25 0 0 1 757.2,5.1 L761.4,17.7656 L761.7,17.7656 A1.5,1.5 0 0 1 763.2,19.2656 L763.2,62.1 A1.5,1.5 0 0 1 761.7,63.6 L659.7,63.6 A1.5,1.5 0 0 1 658.2,62.1 L658.2,5.1 A1.5,1.5 0 0 1 659.7,3.6 " fill="none" style="stroke:#000000;stroke-width:0.8999999999999999;"/><line style="stroke:#000000;stroke-width:0.8999999999999999;" x1="658.2" x2="761.4" y1="17.7656" y2="17.7656"/><text fill="#000000" font-family="sans-serif" font-size="8.4" font-weight="bold" lengthAdjust="spacing" textLength="95.4" x="660.6" y="13.5199">androidx.fragment.app</text></g><!--MD5=[2e9ce2025c6316181ae7dd93a73f95e0]
class com.sct.mobile.application.MainActivity--><g id="elem_com.sct.mobile.application.MainActivity"><rect codeLine="1" fill="#F1F1F1" height="92.1938" id="com.sct.mobile.application.MainActivity" rx="1.5" ry="1.5" style="stroke:#181818;stroke-width:0.3;" width="178.8" x="143.4" y="99.6"/><ellipse cx="208.05" cy="109.2" fill="#ADD1B2" rx="6.6" ry="6.6" style="stroke:#181818;stroke-width:0.6;"/><path d="M209.25,107.1 Q209.3719,106.8 209.5125,106.65 Q209.6531,106.5 209.8125,106.5 Q210.0938,106.5 210.2719,106.6688 Q210.45,106.8375 210.45,107.2313 L210.45,108.1688 Q210.45,108.5625 210.2813,108.7313 Q210.1125,108.9 209.85,108.9 Q209.6156,108.9 209.4656,108.7969 Q209.3156,108.6938 209.25,108.4219 Q209.2219,108.2344 209.1188,108.1313 Q208.9313,107.9344 208.5938,107.8219 Q208.2563,107.7 207.9188,107.7 Q207.4969,107.7 207.1406,107.8687 Q206.7938,108.0375 206.5219,108.4125 Q206.25,108.7875 206.25,109.3031 L206.25,109.8563 Q206.25,110.475 206.7563,110.8875 Q207.2625,111.3 208.1625,111.3 Q208.6969,111.3 209.0719,111.1781 Q209.2875,111.1125 209.5313,110.8969 Q209.6906,110.775 209.775,110.7375 Q209.8594,110.7 209.9625,110.7 Q210.1594,110.7 210.3,110.8594 Q210.45,111.0094 210.45,111.225 Q210.45,111.4312 210.2438,111.675 Q209.9438,112.0313 209.4656,112.2281 Q208.8375,112.5 208.0688,112.5 Q207.1688,112.5 206.4469,112.1438 Q205.8656,111.8625 205.4531,111.2531 Q205.05,110.6438 205.05,109.9219 L205.05,109.2656 Q205.05,108.5156 205.4063,107.8594 Q205.7719,107.2031 206.4,106.8563 Q207.0375,106.5 207.75,106.5 Q208.1813,106.5 208.5563,106.65 Q208.9313,106.8 209.25,107.1 Z " fill="#000000"/><text fill="#000000" font-family="sans-serif" font-size="8.4" lengthAdjust="spacing" textLength="44.4" x="220.35" y="112.6371">MainActivity</text><line style="stroke:#181818;stroke-width:0.3;" x1="144" x2="321.6" y1="118.8" y2="118.8"/><rect fill="none" height="3.6" style="stroke:#C82930;stroke-width:0.6;" width="3.6" x="148.2" y="125.5828"/><text fill="#000000" font-family="sans-serif" font-size="8.4" lengthAdjust="spacing" textLength="160.2" x="155.4" y="129.9199">AppBarConfiguration appBarConfiguration</text><rect fill="none" height="3.6" style="stroke:#C82930;stroke-width:0.6;" width="3.6" x="148.2" y="136.1484"/><text fill="#000000" font-family="sans-serif" font-size="8.4" lengthAdjust="spacing" textLength="102.6" x="155.4" y="140.4855">ActivityMainBinding binding</text><line style="stroke:#181818;stroke-width:0.3;" x1="144" x2="321.6" y1="144.7313" y2="144.7313"/><polygon fill="#FFFF44" points="150,150.3141,152.4,152.7141,150,155.1141,147.6,152.7141" style="stroke:#B38D22;stroke-width:0.6;"/><text fill="#000000" font-family="sans-serif" font-size="8.4" lengthAdjust="spacing" textLength="85.8" x="155.4" y="155.8512">void onCreate(Bundle)</text><ellipse cx="150" cy="163.8797" fill="#84BE84" rx="1.8" ry="1.8" style="stroke:#038048;stroke-width:0.6;"/><text fill="#000000" font-family="sans-serif" font-size="8.4" lengthAdjust="spacing" textLength="145.8" x="155.4" y="166.4168">boolean onCreateOptionsMenu(Menu)</text><ellipse cx="150" cy="174.4453" fill="#84BE84" rx="1.8" ry="1.8" style="stroke:#038048;stroke-width:0.6;"/><text fill="#000000" font-family="sans-serif" font-size="8.4" lengthAdjust="spacing" textLength="163.2" x="155.4" y="176.9824">boolean onOptionsItemSelected(MenuItem)</text><ellipse cx="150" cy="185.0109" fill="#84BE84" rx="1.8" ry="1.8" style="stroke:#038048;stroke-width:0.6;"/><text fill="#000000" font-family="sans-serif" font-size="8.4" lengthAdjust="spacing" textLength="121.8" x="155.4" y="187.548">boolean onSupportNavigateUp()</text></g><!--MD5=[b0fd5e7b6fc0816e5512fb45ccaffb71]
class com.sct.mobile.application.FirstFragment--><g id="elem_com.sct.mobile.application.FirstFragment"><rect codeLine="9" fill="#F1F1F1" height="71.0625" id="com.sct.mobile.application.FirstFragment" rx="1.5" ry="1.5" style="stroke:#181818;stroke-width:0.3;" width="218.4" x="481.8" y="110.4"/><ellipse cx="561.75" cy="120" fill="#ADD1B2" rx="6.6" ry="6.6" style="stroke:#181818;stroke-width:0.6;"/><path d="M562.95,117.9 Q563.0719,117.6 563.2125,117.45 Q563.3531,117.3 563.5125,117.3 Q563.7937,117.3 563.9719,117.4688 Q564.15,117.6375 564.15,118.0313 L564.15,118.9688 Q564.15,119.3625 563.9812,119.5313 Q563.8125,119.7 563.55,119.7 Q563.3156,119.7 563.1656,119.5969 Q563.0156,119.4937 562.95,119.2219 Q562.9219,119.0344 562.8188,118.9312 Q562.6313,118.7344 562.2937,118.6219 Q561.9563,118.5 561.6188,118.5 Q561.1969,118.5 560.8406,118.6687 Q560.4938,118.8375 560.2219,119.2125 Q559.95,119.5875 559.95,120.1031 L559.95,120.6563 Q559.95,121.275 560.4563,121.6875 Q560.9625,122.1 561.8625,122.1 Q562.3969,122.1 562.7719,121.9781 Q562.9875,121.9125 563.2312,121.6969 Q563.3906,121.575 563.475,121.5375 Q563.5594,121.5 563.6625,121.5 Q563.8594,121.5 564,121.6594 Q564.15,121.8094 564.15,122.025 Q564.15,122.2312 563.9438,122.475 Q563.6438,122.8313 563.1656,123.0281 Q562.5375,123.3 561.7688,123.3 Q560.8688,123.3 560.1469,122.9438 Q559.5656,122.6625 559.1531,122.0531 Q558.75,121.4438 558.75,120.7219 L558.75,120.0656 Q558.75,119.3156 559.1062,118.6594 Q559.4719,118.0031 560.1,117.6563 Q560.7375,117.3 561.45,117.3 Q561.8813,117.3 562.2563,117.45 Q562.6313,117.6 562.95,117.9 Z " fill="#000000"/><text fill="#000000" font-family="sans-serif" font-size="8.4" lengthAdjust="spacing" textLength="53.4" x="574.05" y="123.4371">FirstFragment</text><line style="stroke:#181818;stroke-width:0.3;" x1="482.4" x2="699.6" y1="129.6" y2="129.6"/><rect fill="none" height="3.6" style="stroke:#C82930;stroke-width:0.6;" width="3.6" x="486.6" y="136.3828"/><text fill="#000000" font-family="sans-serif" font-size="8.4" lengthAdjust="spacing" textLength="111.6" x="493.8" y="140.7199">FragmentFirstBinding binding</text><line style="stroke:#181818;stroke-width:0.3;" x1="482.4" x2="699.6" y1="144.9656" y2="144.9656"/><ellipse cx="488.4" cy="153.5484" fill="#84BE84" rx="1.8" ry="1.8" style="stroke:#038048;stroke-width:0.6;"/><text fill="#000000" font-family="sans-serif" font-size="8.4" lengthAdjust="spacing" textLength="202.8" x="493.8" y="156.0855">View onCreateView(LayoutInflater,ViewGroup,Bundle)</text><ellipse cx="488.4" cy="164.1141" fill="#84BE84" rx="1.8" ry="1.8" style="stroke:#038048;stroke-width:0.6;"/><text fill="#000000" font-family="sans-serif" font-size="8.4" lengthAdjust="spacing" textLength="127.8" x="493.8" y="166.6512">void onViewCreated(View,Bundle)</text><ellipse cx="488.4" cy="174.6797" fill="#84BE84" rx="1.8" ry="1.8" style="stroke:#038048;stroke-width:0.6;"/><text fill="#000000" font-family="sans-serif" font-size="8.4" lengthAdjust="spacing" textLength="80.4" x="493.8" y="177.2168">void onDestroyView()</text></g><!--MD5=[369d0f0e1df0b8d7994367a6738e527b]
class com.sct.mobile.application.ExampleInstrumentedTest--><g id="elem_com.sct.mobile.application.ExampleInstrumentedTest"><rect codeLine="15" fill="#F1F1F1" height="39.3656" id="com.sct.mobile.application.ExampleInstrumentedTest" rx="1.5" ry="1.5" style="stroke:#181818;stroke-width:0.3;" width="117" x="343.5" y="126"/><ellipse cx="352.5" cy="135.6" fill="#ADD1B2" rx="6.6" ry="6.6" style="stroke:#181818;stroke-width:0.6;"/><path d="M353.7,133.5 Q353.8219,133.2 353.9625,133.05 Q354.1031,132.9 354.2625,132.9 Q354.5438,132.9 354.7219,133.0688 Q354.9,133.2375 354.9,133.6313 L354.9,134.5688 Q354.9,134.9625 354.7313,135.1313 Q354.5625,135.3 354.3,135.3 Q354.0656,135.3 353.9156,135.1969 Q353.7656,135.0938 353.7,134.8219 Q353.6719,134.6344 353.5687,134.5313 Q353.3812,134.3344 353.0438,134.2219 Q352.7063,134.1 352.3688,134.1 Q351.9469,134.1 351.5906,134.2687 Q351.2438,134.4375 350.9719,134.8125 Q350.7,135.1875 350.7,135.7031 L350.7,136.2563 Q350.7,136.875 351.2063,137.2875 Q351.7125,137.7 352.6125,137.7 Q353.1469,137.7 353.5219,137.5781 Q353.7375,137.5125 353.9813,137.2969 Q354.1406,137.175 354.225,137.1375 Q354.3094,137.1 354.4125,137.1 Q354.6094,137.1 354.75,137.2594 Q354.9,137.4094 354.9,137.625 Q354.9,137.8312 354.6937,138.075 Q354.3938,138.4313 353.9156,138.6281 Q353.2875,138.9 352.5188,138.9 Q351.6188,138.9 350.8969,138.5438 Q350.3156,138.2625 349.9031,137.6531 Q349.5,137.0438 349.5,136.3219 L349.5,135.6656 Q349.5,134.9156 349.8563,134.2594 Q350.2219,133.6031 350.85,133.2563 Q351.4875,132.9 352.2,132.9 Q352.6312,132.9 353.0062,133.05 Q353.3812,133.2 353.7,133.5 Z " fill="#000000"/><text fill="#000000" font-family="sans-serif" font-size="8.4" lengthAdjust="spacing" textLength="97.8" x="360.9" y="139.0371">ExampleInstrumentedTest</text><line style="stroke:#181818;stroke-width:0.3;" x1="344.1" x2="459.9" y1="145.2" y2="145.2"/><line style="stroke:#181818;stroke-width:0.3;" x1="344.1" x2="459.9" y1="150" y2="150"/><ellipse cx="350.1" cy="158.5828" fill="#84BE84" rx="1.8" ry="1.8" style="stroke:#038048;stroke-width:0.6;"/><text fill="#000000" font-family="sans-serif" font-size="8.4" lengthAdjust="spacing" textLength="81.6" x="355.5" y="161.1199">void useAppContext()</text></g><!--MD5=[67482f9dfb5f7fd190ed0a6c24253fb4]
class com.sct.mobile.application.SecondFragment--><g id="elem_com.sct.mobile.application.SecondFragment"><rect codeLine="18" fill="#F1F1F1" height="71.0625" id="com.sct.mobile.application.SecondFragment" rx="1.5" ry="1.5" style="stroke:#181818;stroke-width:0.3;" width="218.4" x="721.2" y="110.4"/><ellipse cx="795.15" cy="120" fill="#ADD1B2" rx="6.6" ry="6.6" style="stroke:#181818;stroke-width:0.6;"/><path d="M796.35,117.9 Q796.4719,117.6 796.6125,117.45 Q796.7531,117.3 796.9125,117.3 Q797.1938,117.3 797.3719,117.4688 Q797.55,117.6375 797.55,118.0313 L797.55,118.9688 Q797.55,119.3625 797.3813,119.5313 Q797.2125,119.7 796.95,119.7 Q796.7156,119.7 796.5656,119.5969 Q796.4156,119.4937 796.35,119.2219 Q796.3219,119.0344 796.2188,118.9312 Q796.0313,118.7344 795.6938,118.6219 Q795.3562,118.5 795.0188,118.5 Q794.5969,118.5 794.2406,118.6687 Q793.8938,118.8375 793.6219,119.2125 Q793.35,119.5875 793.35,120.1031 L793.35,120.6563 Q793.35,121.275 793.8562,121.6875 Q794.3625,122.1 795.2625,122.1 Q795.7969,122.1 796.1719,121.9781 Q796.3875,121.9125 796.6313,121.6969 Q796.7906,121.575 796.875,121.5375 Q796.9594,121.5 797.0625,121.5 Q797.2594,121.5 797.4,121.6594 Q797.55,121.8094 797.55,122.025 Q797.55,122.2312 797.3438,122.475 Q797.0437,122.8313 796.5656,123.0281 Q795.9375,123.3 795.1687,123.3 Q794.2688,123.3 793.5469,122.9438 Q792.9656,122.6625 792.5531,122.0531 Q792.15,121.4438 792.15,120.7219 L792.15,120.0656 Q792.15,119.3156 792.5063,118.6594 Q792.8719,118.0031 793.5,117.6563 Q794.1375,117.3 794.85,117.3 Q795.2813,117.3 795.6563,117.45 Q796.0313,117.6 796.35,117.9 Z " fill="#000000"/><text fill="#000000" font-family="sans-serif" font-size="8.4" lengthAdjust="spacing" textLength="65.4" x="807.45" y="123.4371">SecondFragment</text><line style="stroke:#181818;stroke-width:0.3;" x1="721.8" x2="939" y1="129.6" y2="129.6"/><rect fill="none" height="3.6" style="stroke:#C82930;stroke-width:0.6;" width="3.6" x="726" y="136.3828"/><text fill="#000000" font-family="sans-serif" font-size="8.4" lengthAdjust="spacing" textLength="123.6" x="733.2" y="140.7199">FragmentSecondBinding binding</text><line style="stroke:#181818;stroke-width:0.3;" x1="721.8" x2="939" y1="144.9656" y2="144.9656"/><ellipse cx="727.8" cy="153.5484" fill="#84BE84" rx="1.8" ry="1.8" style="stroke:#038048;stroke-width:0.6;"/><text fill="#000000" font-family="sans-serif" font-size="8.4" lengthAdjust="spacing" textLength="202.8" x="733.2" y="156.0855">View onCreateView(LayoutInflater,ViewGroup,Bundle)</text><ellipse cx="727.8" cy="164.1141" fill="#84BE84" rx="1.8" ry="1.8" style="stroke:#038048;stroke-width:0.6;"/><text fill="#000000" font-family="sans-serif" font-size="8.4" lengthAdjust="spacing" textLength="127.8" x="733.2" y="166.6512">void onViewCreated(View,Bundle)</text><ellipse cx="727.8" cy="174.6797" fill="#84BE84" rx="1.8" ry="1.8" style="stroke:#038048;stroke-width:0.6;"/><text fill="#000000" font-family="sans-serif" font-size="8.4" lengthAdjust="spacing" textLength="80.4" x="733.2" y="177.2168">void onDestroyView()</text></g><!--MD5=[c3377be296ee257eb081a8e2299c4dfd]
class com.sct.mobile.application.ExampleUnitTest--><g id="elem_com.sct.mobile.application.ExampleUnitTest"><rect codeLine="24" fill="#F1F1F1" height="39.3656" id="com.sct.mobile.application.ExampleUnitTest" rx="1.5" ry="1.5" style="stroke:#181818;stroke-width:0.3;" width="108.6" x="13.5" y="126"/><ellipse cx="34.38" cy="135.6" fill="#ADD1B2" rx="6.6" ry="6.6" style="stroke:#181818;stroke-width:0.6;"/><path d="M35.58,133.5 Q35.7019,133.2 35.8425,133.05 Q35.9831,132.9 36.1425,132.9 Q36.4238,132.9 36.6019,133.0688 Q36.78,133.2375 36.78,133.6313 L36.78,134.5688 Q36.78,134.9625 36.6113,135.1313 Q36.4425,135.3 36.18,135.3 Q35.9456,135.3 35.7956,135.1969 Q35.6456,135.0938 35.58,134.8219 Q35.5519,134.6344 35.4488,134.5313 Q35.2613,134.3344 34.9238,134.2219 Q34.5863,134.1 34.2487,134.1 Q33.8269,134.1 33.4706,134.2687 Q33.1237,134.4375 32.8519,134.8125 Q32.58,135.1875 32.58,135.7031 L32.58,136.2563 Q32.58,136.875 33.0863,137.2875 Q33.5925,137.7 34.4925,137.7 Q35.0269,137.7 35.4019,137.5781 Q35.6175,137.5125 35.8613,137.2969 Q36.0206,137.175 36.105,137.1375 Q36.1894,137.1 36.2925,137.1 Q36.4894,137.1 36.63,137.2594 Q36.78,137.4094 36.78,137.625 Q36.78,137.8312 36.5738,138.075 Q36.2738,138.4313 35.7956,138.6281 Q35.1675,138.9 34.3988,138.9 Q33.4987,138.9 32.7769,138.5438 Q32.1956,138.2625 31.7831,137.6531 Q31.38,137.0438 31.38,136.3219 L31.38,135.6656 Q31.38,134.9156 31.7363,134.2594 Q32.1019,133.6031 32.73,133.2563 Q33.3675,132.9 34.08,132.9 Q34.5113,132.9 34.8863,133.05 Q35.2613,133.2 35.58,133.5 Z " fill="#000000"/><text fill="#000000" font-family="sans-serif" font-size="8.4" lengthAdjust="spacing" textLength="63" x="45.42" y="139.0371">ExampleUnitTest</text><line style="stroke:#181818;stroke-width:0.3;" x1="14.1" x2="121.5" y1="145.2" y2="145.2"/><line style="stroke:#181818;stroke-width:0.3;" x1="14.1" x2="121.5" y1="150" y2="150"/><ellipse cx="20.1" cy="158.5828" fill="#84BE84" rx="1.8" ry="1.8" style="stroke:#038048;stroke-width:0.6;"/><text fill="#000000" font-family="sans-serif" font-size="8.4" lengthAdjust="spacing" textLength="93" x="25.5" y="161.1199">void addition_isCorrect()</text></g><!--MD5=[6971ca23cf0557f0436b13ef124bfeb7]
class androidx.appcompat.app.AppCompatActivity--><g id="elem_androidx.appcompat.app.AppCompatActivity"><rect fill="#F1F1F1" height="28.8" id="androidx.appcompat.app.AppCompatActivity" rx="1.5" ry="1.5" style="stroke:#181818;stroke-width:0.3;" width="90" x="187.8" y="25.2"/><ellipse cx="196.8" cy="34.8" fill="#ADD1B2" rx="6.6" ry="6.6" style="stroke:#181818;stroke-width:0.6;"/><path d="M198,32.7 Q198.1219,32.4 198.2625,32.25 Q198.4031,32.1 198.5625,32.1 Q198.8438,32.1 199.0219,32.2688 Q199.2,32.4375 199.2,32.8313 L199.2,33.7688 Q199.2,34.1625 199.0313,34.3313 Q198.8625,34.5 198.6,34.5 Q198.3656,34.5 198.2156,34.3969 Q198.0656,34.2937 198,34.0219 Q197.9719,33.8344 197.8688,33.7312 Q197.6813,33.5344 197.3438,33.4219 Q197.0063,33.3 196.6688,33.3 Q196.2469,33.3 195.8906,33.4688 Q195.5438,33.6375 195.2719,34.0125 Q195,34.3875 195,34.9031 L195,35.4563 Q195,36.075 195.5063,36.4875 Q196.0125,36.9 196.9125,36.9 Q197.4469,36.9 197.8219,36.7781 Q198.0375,36.7125 198.2813,36.4969 Q198.4406,36.375 198.525,36.3375 Q198.6094,36.3 198.7125,36.3 Q198.9094,36.3 199.05,36.4594 Q199.2,36.6094 199.2,36.825 Q199.2,37.0313 198.9938,37.275 Q198.6938,37.6313 198.2156,37.8281 Q197.5875,38.1 196.8188,38.1 Q195.9188,38.1 195.1969,37.7438 Q194.6156,37.4625 194.2031,36.8531 Q193.8,36.2438 193.8,35.5219 L193.8,34.8656 Q193.8,34.1156 194.1563,33.4594 Q194.5219,32.8031 195.15,32.4563 Q195.7875,32.1 196.5,32.1 Q196.9313,32.1 197.3063,32.25 Q197.6813,32.4 198,32.7 Z " fill="#000000"/><text fill="#000000" font-family="sans-serif" font-size="8.4" lengthAdjust="spacing" textLength="70.8" x="205.2" y="38.2371">AppCompatActivity</text><line style="stroke:#181818;stroke-width:0.3;" x1="188.4" x2="277.2" y1="44.4" y2="44.4"/><line style="stroke:#181818;stroke-width:0.3;" x1="188.4" x2="277.2" y1="49.2" y2="49.2"/></g><!--MD5=[4ef56d7331cec24f2808280c59a4eb97]
class androidx.fragment.app.Fragment--><g id="elem_androidx.fragment.app.Fragment"><rect fill="#F1F1F1" height="28.8" id="androidx.fragment.app.Fragment" rx="1.5" ry="1.5" style="stroke:#181818;stroke-width:0.3;" width="55.8" x="682.5" y="25.2"/><ellipse cx="691.5" cy="34.8" fill="#ADD1B2" rx="6.6" ry="6.6" style="stroke:#181818;stroke-width:0.6;"/><path d="M692.7,32.7 Q692.8219,32.4 692.9625,32.25 Q693.1031,32.1 693.2625,32.1 Q693.5437,32.1 693.7219,32.2688 Q693.9,32.4375 693.9,32.8313 L693.9,33.7688 Q693.9,34.1625 693.7312,34.3313 Q693.5625,34.5 693.3,34.5 Q693.0656,34.5 692.9156,34.3969 Q692.7656,34.2937 692.7,34.0219 Q692.6719,33.8344 692.5688,33.7312 Q692.3813,33.5344 692.0437,33.4219 Q691.7063,33.3 691.3688,33.3 Q690.9469,33.3 690.5906,33.4688 Q690.2438,33.6375 689.9719,34.0125 Q689.7,34.3875 689.7,34.9031 L689.7,35.4563 Q689.7,36.075 690.2063,36.4875 Q690.7125,36.9 691.6125,36.9 Q692.1469,36.9 692.5219,36.7781 Q692.7375,36.7125 692.9812,36.4969 Q693.1406,36.375 693.225,36.3375 Q693.3094,36.3 693.4125,36.3 Q693.6094,36.3 693.75,36.4594 Q693.9,36.6094 693.9,36.825 Q693.9,37.0313 693.6938,37.275 Q693.3938,37.6313 692.9156,37.8281 Q692.2875,38.1 691.5188,38.1 Q690.6188,38.1 689.8969,37.7438 Q689.3156,37.4625 688.9031,36.8531 Q688.5,36.2438 688.5,35.5219 L688.5,34.8656 Q688.5,34.1156 688.8562,33.4594 Q689.2219,32.8031 689.85,32.4563 Q690.4875,32.1 691.2,32.1 Q691.6313,32.1 692.0063,32.25 Q692.3813,32.4 692.7,32.7 Z " fill="#000000"/><text fill="#000000" font-family="sans-serif" font-size="8.4" lengthAdjust="spacing" textLength="36.6" x="699.9" y="38.2371">Fragment</text><line style="stroke:#181818;stroke-width:0.3;" x1="683.1" x2="737.7" y1="44.4" y2="44.4"/><line style="stroke:#181818;stroke-width:0.3;" x1="683.1" x2="737.7" y1="49.2" y2="49.2"/></g><!--MD5=[52775dc409f7a487be2689ce64123165]
reverse link androidx.appcompat.app.AppCompatActivity to com.sct.mobile.application.MainActivity--><g id="link_androidx.appcompat.app.AppCompatActivity_com.sct.mobile.application.MainActivity"><path codeLine="29" d="M232.8,66.192 C232.8,76.266 232.8,88.116 232.8,99.522 " fill="none" id="androidx.appcompat.app.AppCompatActivity-backto-com.sct.mobile.application.MainActivity" style="stroke:#181818;stroke-width:0.6;"/><polygon fill="none" points="228.6,66.144,232.8,54.144,237,66.144,228.6,66.144" style="stroke:#181818;stroke-width:0.6;"/></g><!--MD5=[fc626debadd3d06002a97e49ed542af2]
reverse link androidx.fragment.app.Fragment to com.sct.mobile.application.FirstFragment--><g id="link_androidx.fragment.app.Fragment_com.sct.mobile.application.FirstFragment"><path codeLine="30" d="M685.386,62.196 C669.528,76.146 648.666,94.488 630.594,110.382 " fill="none" id="androidx.fragment.app.Fragment-backto-com.sct.mobile.application.FirstFragment" style="stroke:#181818;stroke-width:0.6;"/><polygon fill="none" points="682.758,58.914,694.542,54.144,688.308,65.22,682.758,58.914" style="stroke:#181818;stroke-width:0.6;"/></g><!--MD5=[9e0307c17ee45466af0a56dfb9f2d2d1]
reverse link androidx.fragment.app.Fragment to com.sct.mobile.application.SecondFragment--><g id="link_androidx.fragment.app.Fragment_com.sct.mobile.application.SecondFragment"><path codeLine="31" d="M735.54,62.196 C751.476,76.146 772.44,94.488 790.608,110.382 " fill="none" id="androidx.fragment.app.Fragment-backto-com.sct.mobile.application.SecondFragment" style="stroke:#181818;stroke-width:0.6;"/><polygon fill="none" points="732.6,65.208,726.336,54.144,738.132,58.884,732.6,65.208" style="stroke:#181818;stroke-width:0.6;"/></g><!--MD5=[a39663a46a0f2577b31c4df502f77a46]
@startuml
class com.sct.mobile.application.MainActivity {
- AppBarConfiguration appBarConfiguration
- ActivityMainBinding binding
# void onCreate(Bundle)
+ boolean onCreateOptionsMenu(Menu)
+ boolean onOptionsItemSelected(MenuItem)
+ boolean onSupportNavigateUp()
}
class com.sct.mobile.application.FirstFragment {
- FragmentFirstBinding binding
+ View onCreateView(LayoutInflater,ViewGroup,Bundle)
+ void onViewCreated(View,Bundle)
+ void onDestroyView()
}
class com.sct.mobile.application.ExampleInstrumentedTest {
+ void useAppContext()
}
class com.sct.mobile.application.SecondFragment {
- FragmentSecondBinding binding
+ View onCreateView(LayoutInflater,ViewGroup,Bundle)
+ void onViewCreated(View,Bundle)
+ void onDestroyView()
}
class com.sct.mobile.application.ExampleUnitTest {
+ void addition_isCorrect()
}


androidx.appcompat.app.AppCompatActivity <|- - com.sct.mobile.application.MainActivity
androidx.fragment.app.Fragment <|- - com.sct.mobile.application.FirstFragment
androidx.fragment.app.Fragment <|- - com.sct.mobile.application.SecondFragment
@enduml

PlantUML version 1.2022.12(Sun Oct 23 21:12:26 MSK 2022)
(GPL source distribution)
Java Runtime: OpenJDK Runtime Environment
JVM: OpenJDK 64-Bit Server VM
Default Encoding: Cp1251
Language: ru
Country: RU
--></g></svg>